<?xml version="1.0" encoding="UTF-8" standalone="no"?>
<!DOCTYPE svg PUBLIC "-//W3C//DTD SVG 1.1//EN" "http://www.w3.org/Graphics/SVG/1.1/DTD/svg11.dtd">
<svg xmlns="http://www.w3.org/2000/svg" version="1.1" viewBox="0.00 0.00 988.00 252.00">
<g stroke-width="2.00" fill="none" stroke-linecap="butt">
<path stroke="#49875d" vector-effect="non-scaling-stroke" d="
  M 128.94 67.94
  L 123.09 55.07"
/>
<path stroke="#4bc6a5" vector-effect="non-scaling-stroke" d="
  M 110.49 120.01
  Q 106.79 119.84 105.25 120.25
  Q 101.05 121.35 99.10 124.92"
/>
<path stroke="#8acb37" vector-effect="non-scaling-stroke" d="
  M 72.73 33.86
  C 106.90 38.47 126.19 76.19 106.94 105.95
  Q 94.91 124.56 73.07 127.44"
/>
<path stroke="#3fafe1" vector-effect="non-scaling-stroke" d="
  M 131.91 120.14
  C 136.79 121.85 138.23 124.86 138.23 130.11
  Q 138.24 178.30 138.23 226.50
  Q 138.23 230.04 134.10 233.70"
/>
<path stroke="#4bc6a5" vector-effect="non-scaling-stroke" d="
  M 102.97 233.66
  Q 98.96 230.72 98.91 227.75
  Q 98.57 209.79 98.80 152.37"
/>
<path stroke="#3c7199" vector-effect="non-scaling-stroke" d="
  M 154.28 229.16
  L 153.31 231.01"
/>
<path stroke="#8acb37" vector-effect="non-scaling-stroke" d="
  M 79.24 152.32
  Q 80.87 154.13 81.87 155.81
  Q 82.84 157.42 82.84 159.90
  Q 82.94 193.96 82.84 228.01
  Q 82.84 230.29 78.74 233.59"
/>
<path stroke="#8acb37" vector-effect="non-scaling-stroke" d="
  M 188.68 88.90
  Q 193.41 92.08 193.42 95.99
  Q 193.46 161.00 193.38 226.00
  Q 193.37 231.05 188.72 233.63"
/>
<path stroke="#969e49" vector-effect="non-scaling-stroke" d="
  M 154.99 230.70
  Q 154.96 229.92 154.28 229.16"
/>
<path stroke="#7db473" vector-effect="non-scaling-stroke" d="
  M 154.28 229.16
  Q 153.87 227.19 153.87 225.00
  Q 153.80 172.57 153.81 120.34"
/>
<path stroke="#8acb37" vector-effect="non-scaling-stroke" d="
  M 62.59 53.10
  Q 54.62 53.59 50.51 59.08
  C 45.69 65.51 46.47 74.42 52.75 79.62
  Q 55.34 81.76 60.79 83.19
  Q 67.00 84.81 73.24 86.27
  C 81.57 88.22 80.62 100.25 71.26 100.27
  C 66.20 100.29 58.90 101.71 56.02 96.48
  C 54.58 93.87 56.09 87.91 50.96 88.47
  C 48.46 88.74 47.13 91.26 47.38 93.70
  Q 48.73 107.02 62.64 108.44
  Q 63.14 108.49 63.17 109.00
  C 63.36 112.71 61.63 121.37 68.20 119.86
  C 72.34 118.90 71.10 112.21 71.07 109.12
  Q 71.06 108.45 71.72 108.39
  Q 82.31 107.43 85.63 98.94
  C 88.01 92.88 86.52 85.96 81.47 81.81
  C 76.87 78.01 67.06 76.63 60.73 75.08
  C 52.39 73.02 53.88 61.24 63.00 61.06
  C 68.81 60.94 78.05 59.32 79.00 67.89
  Q 79.28 70.46 79.74 71.19
  C 82.09 74.88 87.27 72.17 86.87 68.00
  Q 85.54 54.20 71.65 53.08
  Q 71.14 53.04 71.11 52.53
  C 70.88 48.47 72.48 43.33 68.48 41.57
  C 66.79 40.82 64.95 41.48 63.94 42.91
  C 62.65 44.74 63.22 50.11 63.19 52.48
  Q 63.18 53.07 62.59 53.10"
/>
</g>
<path fill="#555a6e" d="
  M 128.94 67.94
  L 123.09 55.07
  Q 124.17 52.61 124.96 51.75
  Q 130.34 45.86 136.14 40.38
  C 140.15 36.60 144.32 36.62 148.19 40.56
  Q 160.09 52.71 172.68 64.99
  A 1.51 1.51 0.0 0 0 174.80 64.98
  L 206.35 33.42
  A 2.28 2.28 0.0 0 0 206.21 30.07
  Q 203.37 27.66 200.76 24.72
  C 197.81 21.39 199.51 18.10 203.70 18.04
  Q 221.51 17.79 226.89 18.09
  C 231.50 18.35 232.72 22.24 232.73 26.46
  Q 232.77 36.61 232.72 46.77
  C 232.70 50.21 229.69 53.12 226.53 50.21
  Q 222.83 46.81 219.50 43.51
  A 1.07 1.07 0.0 0 0 217.98 43.51
  Q 199.63 61.68 181.35 79.88
  C 175.88 85.32 171.94 85.94 166.48 80.42
  Q 154.75 68.56 142.87 56.86
  A 1.15 1.14 43.0 0 0 141.20 56.91
  Q 135.68 63.15 128.94 67.94
  Z"
/>
<path fill="#d7e123" d="
  M 72.73 33.86
  C 106.90 38.47 126.19 76.19 106.94 105.95
  Q 94.91 124.56 73.07 127.44
  Q 46.77 129.89 30.48 110.52
  C 14.98 92.10 16.84 64.29 33.81 47.29
  Q 49.06 32.01 72.73 33.86
  Z
  M 62.59 53.10
  Q 54.62 53.59 50.51 59.08
  C 45.69 65.51 46.47 74.42 52.75 79.62
  Q 55.34 81.76 60.79 83.19
  Q 67.00 84.81 73.24 86.27
  C 81.57 88.22 80.62 100.25 71.26 100.27
  C 66.20 100.29 58.90 101.71 56.02 96.48
  C 54.58 93.87 56.09 87.91 50.96 88.47
  C 48.46 88.74 47.13 91.26 47.38 93.70
  Q 48.73 107.02 62.64 108.44
  Q 63.14 108.49 63.17 109.00
  C 63.36 112.71 61.63 121.37 68.20 119.86
  C 72.34 118.90 71.10 112.21 71.07 109.12
  Q 71.06 108.45 71.72 108.39
  Q 82.31 107.43 85.63 98.94
  C 88.01 92.88 86.52 85.96 81.47 81.81
  C 76.87 78.01 67.06 76.63 60.73 75.08
  C 52.39 73.02 53.88 61.24 63.00 61.06
  C 68.81 60.94 78.05 59.32 79.00 67.89
  Q 79.28 70.46 79.74 71.19
  C 82.09 74.88 87.27 72.17 86.87 68.00
  Q 85.54 54.20 71.65 53.08
  Q 71.14 53.04 71.11 52.53
  C 70.88 48.47 72.48 43.33 68.48 41.57
  C 66.79 40.82 64.95 41.48 63.94 42.91
  C 62.65 44.74 63.22 50.11 63.19 52.48
  Q 63.18 53.07 62.59 53.10
  Z"
/>
<path fill="#3cb44b" d="
  M 72.73 33.86
  Q 81.04 33.56 84.02 33.68
  Q 102.58 34.45 115.70 46.93
  C 118.01 49.13 120.52 52.35 123.09 55.07
  L 128.94 67.94
  C 129.05 71.69 129.96 75.75 129.99 79.04
  Q 130.21 104.35 109.76 119.33
  Q 109.30 119.67 109.85 119.83
  L 110.49 120.01
  Q 106.79 119.84 105.25 120.25
  Q 101.05 121.35 99.10 124.92
  Q 92.77 127.02 86.75 127.35
  Q 81.13 127.66 73.07 127.44
  Q 94.91 124.56 106.94 105.95
  C 126.19 76.19 106.90 38.47 72.73 33.86
  Z"
/>
<path fill="#3cb44b" d="
  M 63.19 52.48
  C 63.22 50.11 62.65 44.74 63.94 42.91
  C 64.95 41.48 66.79 40.82 68.48 41.57
  C 72.48 43.33 70.88 48.47 71.11 52.53
  Q 71.14 53.04 71.65 53.08
  Q 85.54 54.20 86.87 68.00
  C 87.27 72.17 82.09 74.88 79.74 71.19
  Q 79.28 70.46 79.00 67.89
  C 78.05 59.32 68.81 60.94 63.00 61.06
  C 53.88 61.24 52.39 73.02 60.73 75.08
  C 67.06 76.63 76.87 78.01 81.47 81.81
  C 86.52 85.96 88.01 92.88 85.63 98.94
  Q 82.31 107.43 71.72 108.39
  Q 71.06 108.45 71.07 109.12
  C 71.10 112.21 72.34 118.90 68.20 119.86
  C 61.63 121.37 63.36 112.71 63.17 109.00
  Q 63.14 108.49 62.64 108.44
  Q 48.73 107.02 47.38 93.70
  C 47.13 91.26 48.46 88.74 50.96 88.47
  C 56.09 87.91 54.58 93.87 56.02 96.48
  C 58.90 101.71 66.20 100.29 71.26 100.27
  C 80.62 100.25 81.57 88.22 73.24 86.27
  Q 67.00 84.81 60.79 83.19
  Q 55.34 81.76 52.75 79.62
  C 46.47 74.42 45.69 65.51 50.51 59.08
  Q 54.62 53.59 62.59 53.10
  Q 63.18 53.07 63.19 52.48
  Z"
/>
<path fill="#88d00f" d="
  M 342.87 86.83
  C 323.22 74.37 293.98 80.01 285.63 103.06
  C 278.52 122.64 291.65 142.86 311.58 146.50
  C 322.21 148.44 333.42 146.98 342.60 141.08
  Q 343.55 140.48 344.04 141.48
  L 353.86 161.22
  A 1.20 1.20 0.0 0 1 353.46 162.74
  C 344.59 168.72 334.70 171.07 323.77 172.07
  C 299.95 174.24 276.61 162.96 264.08 142.41
  C 252.61 123.60 253.44 99.97 266.25 82.02
  C 279.29 63.74 301.56 53.46 324.01 55.52
  C 334.11 56.45 345.60 59.09 353.96 65.38
  A 0.66 0.66 0.0 0 1 354.16 66.21
  L 343.98 86.52
  A 0.78 0.77 29.3 0 1 342.87 86.83
  Z"
/>
<path fill="#ffffff" d="
  M 742.02 161.53
  A 0.89 0.89 0.0 0 1 741.70 162.69
  C 729.42 170.42 715.00 173.11 700.51 172.09
  C 670.92 169.99 644.63 146.03 643.78 115.48
  C 643.21 95.15 654.84 75.45 672.09 65.06
  Q 697.89 49.51 728.06 58.73
  Q 736.48 61.30 741.84 65.35
  A 0.72 0.72 0.0 0 1 742.05 66.24
  L 731.78 86.53
  A 0.60 0.59 -61.2 0 1 730.95 86.78
  C 711.27 75.37 682.31 78.91 673.59 103.13
  C 666.91 121.70 678.56 141.91 697.98 146.18
  Q 715.83 150.10 731.08 140.69
  A 0.38 0.38 0.0 0 1 731.62 140.84
  L 742.02 161.53
  Z"
/>
<circle fill="#ffffff" cx="844.62" cy="70.93" r="14.33"/>
<path fill="#d7e123" d="
  M 188.68 88.90
  Q 193.41 92.08 193.42 95.99
  Q 193.46 161.00 193.38 226.00
  Q 193.37 231.05 188.72 233.63
  Q 174.72 234.38 160.50 233.79
  Q 157.17 233.65 154.99 230.70
  Q 154.96 229.92 154.28 229.16
  Q 153.87 227.19 153.87 225.00
  Q 153.80 172.57 153.81 120.34
  Q 154.13 109.64 153.95 99.05
  Q 153.88 94.79 155.13 92.68
  C 157.80 88.15 161.45 88.84 167.23 88.74
  Q 178.07 88.55 188.68 88.90
  Z"
/>
<path fill="#3cb44b" d="
  M 188.72 233.63
  Q 193.37 231.05 193.38 226.00
  Q 193.46 161.00 193.42 95.99
  Q 193.41 92.08 188.68 88.90
  Q 203.76 88.65 218.60 88.82
  C 224.90 88.89 229.48 87.97 231.88 93.29
  Q 232.75 95.23 232.76 99.35
  Q 232.76 162.03 232.73 224.70
  C 232.73 230.41 230.24 233.75 224.47 233.78
  Q 206.65 233.87 188.72 233.63
  Z"
/>
<path fill="#88d00f" d="
  M 438.5094 135.1175
  A 42.50 37.39 -0.3 0 1 396.2058 172.7295
  A 42.50 37.39 -0.3 0 1 353.5106 135.5625
  A 42.50 37.39 -0.3 0 1 395.8142 97.9505
  A 42.50 37.39 -0.3 0 1 438.5094 135.1175
  Z
  M 412.80 135.36
  A 16.81 16.81 0.0 0 0 395.99 118.55
  A 16.81 16.81 0.0 0 0 379.18 135.36
  A 16.81 16.81 0.0 0 0 395.99 152.17
  A 16.81 16.81 0.0 0 0 412.80 135.36
  Z"
/>
<path fill="#88d00f" d="
  M 497.51 106.00
  L 497.51 100.87
  Q 497.51 100.24 498.14 100.24
  L 521.03 100.19
  Q 521.63 100.19 521.63 100.78
  L 521.61 169.45
  A 0.81 0.81 0.0 0 1 520.80 170.26
  L 498.50 170.26
  Q 497.99 170.26 497.97 169.75
  L 497.74 163.29
  A 0.48 0.48 0.0 0 0 496.91 162.97
  C 491.90 168.26 485.79 171.08 478.40 172.01
  C 444.67 176.24 428.11 135.42 447.68 110.74
  C 459.90 95.33 481.83 94.17 496.94 106.27
  Q 497.51 106.73 497.51 106.00
  Z
  M 498.27 135.38
  A 16.79 16.79 0.0 0 0 481.48 118.59
  A 16.79 16.79 0.0 0 0 464.69 135.38
  A 16.79 16.79 0.0 0 0 481.48 152.17
  A 16.79 16.79 0.0 0 0 498.27 135.38
  Z"
/>
<path fill="#ffffff" d="
  M 802.07 101.41
  Q 811.70 105.09 818.94 114.28
  Q 826.11 123.39 825.92 136.00
  C 825.65 154.23 812.97 167.50 795.73 171.07
  C 776.80 174.99 754.28 170.09 745.28 151.10
  C 738.83 137.49 741.17 121.48 751.73 110.60
  C 764.44 97.51 785.99 95.27 802.07 101.41
  Z
  M 800.62 135.36
  A 16.77 16.77 0.0 0 0 783.85 118.59
  A 16.77 16.77 0.0 0 0 767.08 135.36
  A 16.77 16.77 0.0 0 0 783.85 152.13
  A 16.77 16.77 0.0 0 0 800.62 135.36
  Z"
/>
<path fill="#ffffff" d="
  M 892.92 107.27
  C 900.20 101.25 905.06 97.94 914.74 98.25
  C 926.10 98.61 938.16 103.93 942.27 114.95
  Q 943.69 118.76 943.74 126.24
  Q 943.88 147.98 943.77 169.74
  Q 943.77 170.28 943.23 170.28
  L 920.75 170.40
  A 1.15 1.14 89.8 0 1 919.60 169.25
  Q 919.73 149.56 919.59 130.50
  C 919.47 114.75 899.78 112.21 893.61 125.46
  Q 892.20 128.50 892.23 135.20
  Q 892.30 152.60 892.25 169.88
  A 0.49 0.49 0.0 0 1 891.76 170.37
  L 868.62 170.39
  Q 868.23 170.39 868.23 170.00
  L 868.24 100.75
  Q 868.24 100.23 868.75 100.23
  L 891.74 100.23
  Q 892.25 100.23 892.25 100.74
  L 892.27 106.96
  Q 892.27 107.80 892.92 107.27
  Z"
/>
<path fill="#88d00f" d="
  M 568.91 150.71
  L 553.87 170.11
  A 0.47 0.47 0.0 0 1 553.50 170.29
  L 525.64 170.27
  A 0.47 0.47 0.0 0 1 525.28 169.50
  L 554.42 133.98
  A 0.47 0.47 0.0 0 0 554.43 133.39
  L 529.27 100.91
  A 0.47 0.47 0.0 0 1 529.64 100.15
  L 556.68 100.14
  A 0.47 0.47 0.0 0 1 557.06 100.33
  L 568.89 116.09
  A 0.47 0.47 0.0 0 0 569.64 116.09
  L 581.52 100.36
  A 0.47 0.47 0.0 0 1 581.89 100.17
  L 608.96 100.12
  A 0.47 0.47 0.0 0 1 609.33 100.88
  L 584.14 133.42
  A 0.47 0.47 0.0 0 0 584.15 134.01
  L 613.35 169.57
  A 0.47 0.47 0.0 0 1 612.98 170.34
  L 585.05 170.25
  A 0.47 0.47 0.0 0 1 584.68 170.07
  L 569.65 150.71
  A 0.47 0.47 0.0 0 0 568.91 150.71
  Z"
/>
<rect fill="#ffffff" x="832.22" y="100.24" width="24.16" height="70.08" rx="0.40"/>
<path fill="#5ad7ff" d="
  M 110.49 120.01
  L 131.91 120.14
  C 136.79 121.85 138.23 124.86 138.23 130.11
  Q 138.24 178.30 138.23 226.50
  Q 138.23 230.04 134.10 233.70
  L 102.97 233.66
  Q 98.96 230.72 98.91 227.75
  Q 98.57 209.79 98.80 152.37
  L 99.10 124.92
  Q 101.05 121.35 105.25 120.25
  Q 106.79 119.84 110.49 120.01
  Z"
/>
<path fill="#2387c3" d="
  M 131.91 120.14
  L 153.81 120.34
  Q 153.80 172.57 153.87 225.00
  Q 153.87 227.19 154.28 229.16
  L 153.31 231.01
  Q 152.28 232.27 152.84 232.54
  A 0.75 0.57 -24.8 0 1 152.23 233.68
  L 134.10 233.70
  Q 138.23 230.04 138.23 226.50
  Q 138.24 178.30 138.23 130.11
  C 138.23 124.86 136.79 121.85 131.91 120.14
  Z"
/>
<path fill="#d7e123" d="
  M 79.24 152.32
  Q 80.87 154.13 81.87 155.81
  Q 82.84 157.42 82.84 159.90
  Q 82.94 193.96 82.84 228.01
  Q 82.84 230.29 78.74 233.59
  Q 69.45 234.09 51.74 233.89
  C 45.83 233.82 43.54 230.62 43.52 224.89
  Q 43.44 193.18 43.51 161.45
  C 43.52 156.27 45.16 152.16 50.75 151.95
  Q 61.72 151.54 79.24 152.32
  Z"
/>
<path fill="#3cb44b" d="
  M 98.80 152.37
  Q 98.57 209.79 98.91 227.75
  Q 98.96 230.72 102.97 233.66
  L 78.74 233.59
  Q 82.84 230.29 82.84 228.01
  Q 82.94 193.96 82.84 159.90
  Q 82.84 157.42 81.87 155.81
  Q 80.87 154.13 79.24 152.32
  Q 89.12 151.62 98.80 152.37
  Z"
/>
<path fill="#555a6e" d="
  M 154.28 229.16
  Q 154.96 229.92 154.99 230.70
  Q 154.70 230.66 154.48 230.68
  Q 154.23 230.71 154.13 230.99
  Q 154.09 231.11 154.00 231.01
  Q 153.74 230.73 153.31 231.01
  L 154.28 229.16
  Z"
/>
</svg>
